<svg xmlns="http://www.w3.org/2000/svg" width="26" height="28" viewBox="0 0 26 28"><path d="M10 22.5q0 .063.016.313t.008.414-.047.367-.156.305-.32.1h-5q-1.858 0-3.18-1.32T0 19.5v-11q0-1.858 1.32-3.18T4.5 4h5q.204 0 .353.15T10 4.5q0 .064.017.314t.008.414-.047.367-.156.305-.32.102h-5q-1.03 0-1.766.734t-.734 1.766v11q0 1.03.734 1.766t1.766.734h4.875l.18.016.18.047.125.086.11.142.03.21zM24.5 14q0 .406-.297.703l-8.5 8.5q-.297.297-.703.297t-.703-.297T14 22.5V18H7q-.406 0-.703-.297T6 17v-6q0-.406.297-.703T7 10h7V5.5q0-.406.297-.703T15 4.5t.703.297l8.5 8.5q.297.297.297.703z" fill="#444"/></svg>